<svg xmlns="http://www.w3.org/2000/svg" viewBox="0 0 32 40" fill="none" x="0px" y="0px"><path d="M0 11.5C0 11.2239 0.223858 11 0.5 11H23.5C23.7761 11 24 11.2239 24 11.5C24 11.7761 23.7761 12 23.5 12H0.5C0.223858 12 0 11.7761 0 11.5Z" transform="translate(4 4)" fill="black"/><path d="M6 0.5C6 0.223858 6.22386 0 6.5 0H23.5C23.7761 0 24 0.223858 24 0.5C24 0.776142 23.7761 1 23.5 1H6.5C6.22386 1 6 0.776142 6 0.5Z" transform="translate(4 4)" fill="black"/><path d="M6 22.5C6 22.2239 6.22386 22 6.5 22H23.5C23.7761 22 24 22.2239 24 22.5C24 22.7761 23.7761 23 23.5 23H6.5C6.22386 23 6 22.7761 6 22.5Z" transform="translate(4 4)" fill="black"/><text x="0" y="47" fill="#000000" font-size="5px" font-weight="bold" font-family="'Helvetica Neue', Helvetica, Arial-Unicode, Arial, Sans-serif">Created by Billy Sweetman</text><text x="0" y="52" fill="#000000" font-size="5px" font-weight="bold" font-family="'Helvetica Neue', Helvetica, Arial-Unicode, Arial, Sans-serif">from the Noun Project</text></svg>